<svg width="155" height="44" viewBox="0 0 155 44" fill="none" xmlns="http://www.w3.org/2000/svg">
<g filter="url(#filter0_d_12_1043)">
<rect x="87" y="4" width="64" height="32" rx="4" fill="#01024E"/>
<path d="M105.181 26.1758H104.293L99.5469 17.8525L98.123 26H95.8555L98.2197 13.124H99.2744L103.924 21.1045L105.321 13.124H107.58L105.181 26.1758ZM111.151 21.21C111.151 18.9189 111.775 16.9619 113.023 15.3389C114.277 13.71 115.906 12.8955 117.91 12.8955C119.451 12.8955 120.638 13.3057 121.47 14.126C122.302 14.9404 122.718 16.1211 122.718 17.668C122.718 20.2051 122.079 22.2646 120.802 23.8467C119.524 25.4287 117.775 26.2197 115.555 26.2197C114.195 26.2197 113.12 25.7627 112.329 24.8486C111.544 23.9287 111.151 22.7158 111.151 21.21ZM113.524 20.9727C113.524 21.9629 113.721 22.751 114.113 23.3369C114.506 23.9229 115.08 24.2158 115.836 24.2158C117.23 24.2158 118.332 23.5889 119.141 22.335C119.949 21.0811 120.354 19.584 120.354 17.8438C120.354 15.875 119.486 14.8906 117.752 14.8906C116.533 14.8906 115.522 15.5352 114.72 16.8242C113.923 18.1133 113.524 19.4961 113.524 20.9727ZM137.1 26.1758H136.177L134.779 18.3184L130.604 26.1758H129.682L127.862 13.124H130.191L131.167 20.9287L135.228 13.124H136.221L137.416 20.876L141.178 13.124H143.656L137.1 26.1758Z" fill="white"/>
</g>
<g filter="url(#filter1_d_12_1043)">
<rect x="4" y="4" width="81" height="32" rx="4" fill="#FF6464"/>
<path d="M19.0059 15.6641C18.3262 15.166 17.6348 14.917 16.9316 14.917C15.5195 14.917 14.8135 15.4502 14.8135 16.5166C14.8135 16.9678 15.1885 17.5068 15.9385 18.1338L17.2656 19.2588C17.6758 19.6104 17.96 19.8682 18.1182 20.0322C18.2764 20.1904 18.4434 20.4131 18.6191 20.7002C18.7949 20.9873 18.9268 21.2773 19.0146 21.5703C19.1025 21.8633 19.1465 22.1621 19.1465 22.4668C19.1465 23.6445 18.7041 24.5645 17.8193 25.2266C16.9404 25.8887 15.7979 26.2197 14.3916 26.2197C13.2373 26.2197 12.1475 25.9707 11.1221 25.4727L11.8604 23.2139C12.6455 23.8057 13.5566 24.1016 14.5938 24.1016C15.2207 24.1016 15.7393 23.9697 16.1494 23.7061C16.5654 23.4365 16.7734 23.0557 16.7734 22.5635C16.7734 22.0771 16.3984 21.541 15.6484 20.9551L14.2686 19.8564C13.8467 19.5166 13.5596 19.2705 13.4072 19.1182C13.2607 18.9658 13.1055 18.7549 12.9414 18.4854C12.7773 18.21 12.6543 17.9287 12.5723 17.6416C12.4902 17.3545 12.4492 17.0586 12.4492 16.7539C12.4492 15.5703 12.8418 14.6328 13.627 13.9414C14.4121 13.25 15.4404 12.9043 16.7119 12.9043C17.1338 12.9043 17.6729 12.9541 18.3291 13.0537C18.9854 13.1475 19.4453 13.2559 19.709 13.3789L19.0059 15.6641ZM23.6494 21.21C23.6494 18.9189 24.2734 16.9619 25.5215 15.3389C26.7754 13.71 28.4043 12.8955 30.4082 12.8955C31.9492 12.8955 33.1357 13.3057 33.9678 14.126C34.7998 14.9404 35.2158 16.1211 35.2158 17.668C35.2158 20.2051 34.5771 22.2646 33.2998 23.8467C32.0225 25.4287 30.2734 26.2197 28.0527 26.2197C26.6934 26.2197 25.6182 25.7627 24.8271 24.8486C24.042 23.9287 23.6494 22.7158 23.6494 21.21ZM26.0225 20.9727C26.0225 21.9629 26.2188 22.751 26.6113 23.3369C27.0039 23.9229 27.5781 24.2158 28.334 24.2158C29.7285 24.2158 30.8301 23.5889 31.6387 22.335C32.4473 21.0811 32.8516 19.584 32.8516 17.8438C32.8516 15.875 31.9844 14.8906 30.25 14.8906C29.0312 14.8906 28.0205 15.5352 27.2178 16.8242C26.4209 18.1133 26.0225 19.4961 26.0225 20.9727ZM42.0566 21.2715L41.1865 26H38.8486L41.2744 13.1416C42.499 13.0127 43.4336 12.9482 44.0781 12.9482C47.4824 12.9482 49.1846 14.2285 49.1846 16.7891C49.1846 18.2305 48.666 19.3643 47.6289 20.1904C46.5977 21.0107 45.2588 21.4209 43.6123 21.4209C43.085 21.4209 42.5664 21.3711 42.0566 21.2715ZM43.1816 15.0752L42.417 19.3203C42.7158 19.4023 43.0967 19.4434 43.5596 19.4434C44.5557 19.4434 45.3467 19.2295 45.9326 18.8018C46.5186 18.374 46.8115 17.7588 46.8115 16.9561C46.8115 15.6025 46.0439 14.9258 44.5088 14.9258C44.0986 14.9258 43.6562 14.9756 43.1816 15.0752ZM62.582 15.1279H56.6494L56.1133 18.0898H60.3672L60.0068 20.0059H55.7529L55.0322 23.9961H60.8682L60.4902 26H52.2988L54.6719 13.124H62.96L62.582 15.1279ZM66.4873 21.21C66.4873 18.9189 67.1113 16.9619 68.3594 15.3389C69.6133 13.71 71.2422 12.8955 73.2461 12.8955C74.7871 12.8955 75.9736 13.3057 76.8057 14.126C77.6377 14.9404 78.0537 16.1211 78.0537 17.668C78.0537 20.2051 77.415 22.2646 76.1377 23.8467C74.8604 25.4287 73.1113 26.2197 70.8906 26.2197C69.5312 26.2197 68.4561 25.7627 67.665 24.8486C66.8799 23.9287 66.4873 22.7158 66.4873 21.21ZM68.8604 20.9727C68.8604 21.9629 69.0566 22.751 69.4492 23.3369C69.8418 23.9229 70.416 24.2158 71.1719 24.2158C72.5664 24.2158 73.668 23.5889 74.4766 22.335C75.2852 21.0811 75.6895 19.584 75.6895 17.8438C75.6895 15.875 74.8223 14.8906 73.0879 14.8906C71.8691 14.8906 70.8584 15.5352 70.0557 16.8242C69.2588 18.1133 68.8604 19.4961 68.8604 20.9727Z" fill="white"/>
</g>
<defs>
<filter id="filter0_d_12_1043" x="83" y="4" width="72" height="40" filterUnits="userSpaceOnUse" color-interpolation-filters="sRGB">
<feFlood flood-opacity="0" result="BackgroundImageFix"/>
<feColorMatrix in="SourceAlpha" type="matrix" values="0 0 0 0 0 0 0 0 0 0 0 0 0 0 0 0 0 0 127 0" result="hardAlpha"/>
<feOffset dy="4"/>
<feGaussianBlur stdDeviation="2"/>
<feComposite in2="hardAlpha" operator="out"/>
<feColorMatrix type="matrix" values="0 0 0 0 0 0 0 0 0 0 0 0 0 0 0 0 0 0 0.15 0"/>
<feBlend mode="normal" in2="BackgroundImageFix" result="effect1_dropShadow_12_1043"/>
<feBlend mode="normal" in="SourceGraphic" in2="effect1_dropShadow_12_1043" result="shape"/>
</filter>
<filter id="filter1_d_12_1043" x="0" y="4" width="89" height="40" filterUnits="userSpaceOnUse" color-interpolation-filters="sRGB">
<feFlood flood-opacity="0" result="BackgroundImageFix"/>
<feColorMatrix in="SourceAlpha" type="matrix" values="0 0 0 0 0 0 0 0 0 0 0 0 0 0 0 0 0 0 127 0" result="hardAlpha"/>
<feOffset dy="4"/>
<feGaussianBlur stdDeviation="2"/>
<feComposite in2="hardAlpha" operator="out"/>
<feColorMatrix type="matrix" values="0 0 0 0 0 0 0 0 0 0 0 0 0 0 0 0 0 0 0.15 0"/>
<feBlend mode="normal" in2="BackgroundImageFix" result="effect1_dropShadow_12_1043"/>
<feBlend mode="normal" in="SourceGraphic" in2="effect1_dropShadow_12_1043" result="shape"/>
</filter>
</defs>
</svg>
